<?xml version="1.0" standalone="no"?>
<!DOCTYPE svg PUBLIC "-//W3C//DTD SVG 20010904//EN"
 "http://www.w3.org/TR/2001/REC-SVG-20010904/DTD/svg10.dtd">
<svg version="1.0" xmlns="http://www.w3.org/2000/svg"
 width="700.000000pt" height="700.000000pt" viewBox="0 0 700.000000 700.000000"
 preserveAspectRatio="xMidYMid meet">
<metadata>
Created by potrace 1.11, written by Peter Selinger 2001-2013
</metadata>
<g transform="translate(0.000000,700.000000) scale(0.100000,-0.100000)"
fill="#000000" stroke="none">
<path d="M3298 6995 c-2 -1 -39 -6 -83 -9 -153 -13 -227 -23 -355 -47 -30 -6
-68 -13 -85 -15 -16 -2 -62 -13 -101 -24 -39 -10 -81 -21 -95 -24 -43 -8 -261
-82 -374 -126 -133 -53 -416 -195 -542 -273 -484 -301 -908 -737 -1190 -1222
-170 -293 -329 -697 -387 -985 -3 -14 -7 -36 -10 -50 -5 -23 -21 -108 -31
-169 -2 -13 -7 -45 -11 -70 -3 -25 -8 -57 -10 -71 -25 -161 -25 -694 1 -825 2
-11 7 -40 10 -65 3 -25 7 -56 10 -70 2 -14 7 -41 9 -60 19 -142 136 -558 190
-675 8 -16 24 -54 35 -84 27 -66 152 -318 186 -371 14 -22 25 -42 25 -45 0
-10 160 -244 227 -332 150 -198 389 -444 574 -594 371 -301 800 -524 1264
-658 70 -20 79 -22 168 -41 27 -5 51 -12 55 -14 4 -2 25 -7 47 -10 22 -4 78
-13 125 -21 81 -13 139 -19 350 -34 195 -14 546 2 731 34 13 2 66 11 118 20
340 58 744 206 1076 393 133 74 453 293 485 331 3 3 34 30 70 60 137 115 358
347 484 508 315 403 569 949 661 1423 18 91 36 200 45 265 5 44 12 96 15 115
10 67 13 506 4 605 -13 150 -19 205 -29 260 -6 28 -12 68 -16 90 -7 52 -53
263 -63 295 -5 14 -19 59 -31 100 -101 332 -252 651 -443 935 -33 50 -70 102
-81 116 -12 15 -30 39 -41 55 -20 28 -65 85 -75 94 -3 3 -37 43 -77 90 -76 90
-243 256 -357 355 -313 273 -719 506 -1123 648 -95 33 -324 100 -383 111 -14
2 -61 12 -105 20 -44 9 -97 18 -119 22 -21 3 -47 7 -56 9 -10 2 -51 7 -92 10
-40 4 -86 9 -103 12 -31 5 -492 12 -497 8z m-248 -3495 l0 -2559 -32 5 c-45 8
-209 49 -288 72 -163 47 -454 181 -600 276 -36 23 -78 51 -95 61 -80 50 -261
201 -366 306 -332 332 -565 733 -683 1179 -25 96 -33 130 -42 185 -3 17 -9 54
-14 84 -31 177 -34 587 -5 756 3 17 7 44 10 60 3 17 7 41 10 55 3 14 8 39 11
55 10 58 45 191 70 265 28 83 132 339 146 356 5 7 27 47 50 89 207 395 625
817 1008 1019 30 16 78 41 105 56 118 65 432 181 553 205 15 3 54 12 87 19 33
8 63 14 68 15 4 1 7 -1151 7 -2559z m1080 2520 c110 -27 261 -76 325 -105 17
-7 50 -21 75 -31 78 -31 270 -133 369 -197 639 -411 1070 -1082 1176 -1827 27
-184 27 -559 0 -720 -1 -8 -5 -37 -10 -65 -9 -60 -30 -154 -55 -250 -6 -22
-12 -47 -14 -55 -45 -175 -190 -487 -319 -685 -150 -231 -366 -465 -592 -641
-220 -170 -523 -331 -790 -418 -67 -21 -321 -86 -339 -86 -4 0 -6 1152 -6
2560 l0 2560 33 -6 c17 -4 84 -19 147 -34z"/>
</g>
</svg>
